<mxfile host="app.diagrams.net" modified="2023-11-24T14:28:00.798Z" agent="Mozilla/5.0 (Macintosh; Intel Mac OS X 10_15_7) AppleWebKit/605.1.15 (KHTML, like Gecko) Version/16.6 Safari/605.1.15" etag="0h26QYAe8obNlR2F8oK1" version="22.1.3" type="github">
  <diagram name="Page-1" id="O-bdZxh4DBNLbc9ju1Mh">
    <mxGraphModel dx="989" dy="570" grid="1" gridSize="10" guides="1" tooltips="1" connect="1" arrows="1" fold="1" page="1" pageScale="1" pageWidth="3200" pageHeight="5500" math="0" shadow="0">
      <root>
        <mxCell id="0" />
        <mxCell id="1" parent="0" />
        <mxCell id="FLOeGrNZsjhfst8N86-V-60" value="" style="ellipse;whiteSpace=wrap;html=1;aspect=fixed;strokeColor=#000000;fillColor=#FF0000;" vertex="1" parent="1">
          <mxGeometry x="1018" y="417.5" width="10" height="10" as="geometry" />
        </mxCell>
        <mxCell id="FLOeGrNZsjhfst8N86-V-61" value="" style="ellipse;whiteSpace=wrap;html=1;aspect=fixed;strokeColor=#000000;fillColor=#FF0000;" vertex="1" parent="1">
          <mxGeometry x="1038" y="417.5" width="10" height="10" as="geometry" />
        </mxCell>
        <mxCell id="FLOeGrNZsjhfst8N86-V-62" value="" style="ellipse;whiteSpace=wrap;html=1;aspect=fixed;strokeColor=#000000;fillColor=#FF0000;" vertex="1" parent="1">
          <mxGeometry x="1052" y="407.5" width="10" height="10" as="geometry" />
        </mxCell>
        <mxCell id="FLOeGrNZsjhfst8N86-V-63" value="" style="ellipse;whiteSpace=wrap;html=1;aspect=fixed;strokeColor=#000000;fillColor=#FF0000;" vertex="1" parent="1">
          <mxGeometry x="1031" y="448.5" width="10" height="10" as="geometry" />
        </mxCell>
        <mxCell id="FLOeGrNZsjhfst8N86-V-64" value="" style="ellipse;whiteSpace=wrap;html=1;aspect=fixed;strokeColor=#000000;fillColor=#FF0000;" vertex="1" parent="1">
          <mxGeometry x="1071" y="432.5" width="10" height="10" as="geometry" />
        </mxCell>
        <mxCell id="FLOeGrNZsjhfst8N86-V-65" value="" style="ellipse;whiteSpace=wrap;html=1;aspect=fixed;strokeColor=#000000;fillColor=#FF0000;" vertex="1" parent="1">
          <mxGeometry x="1049" y="437.5" width="10" height="10" as="geometry" />
        </mxCell>
        <mxCell id="FLOeGrNZsjhfst8N86-V-66" value="" style="ellipse;whiteSpace=wrap;html=1;aspect=fixed;strokeColor=#000000;fillColor=#FF0000;" vertex="1" parent="1">
          <mxGeometry x="1068" y="448.5" width="10" height="10" as="geometry" />
        </mxCell>
        <mxCell id="FLOeGrNZsjhfst8N86-V-67" value="" style="rhombus;whiteSpace=wrap;html=1;fillColor=#009900;" vertex="1" parent="1">
          <mxGeometry x="1111" y="498.5" width="10" height="10" as="geometry" />
        </mxCell>
        <mxCell id="FLOeGrNZsjhfst8N86-V-68" value="" style="rhombus;whiteSpace=wrap;html=1;fillColor=#009900;" vertex="1" parent="1">
          <mxGeometry x="1121" y="508.5" width="10" height="10" as="geometry" />
        </mxCell>
        <mxCell id="FLOeGrNZsjhfst8N86-V-69" value="" style="rhombus;whiteSpace=wrap;html=1;fillColor=#009900;" vertex="1" parent="1">
          <mxGeometry x="1131" y="493.5" width="10" height="10" as="geometry" />
        </mxCell>
        <mxCell id="FLOeGrNZsjhfst8N86-V-70" value="" style="rhombus;whiteSpace=wrap;html=1;fillColor=#009900;" vertex="1" parent="1">
          <mxGeometry x="1129" y="474.5" width="10" height="10" as="geometry" />
        </mxCell>
        <mxCell id="FLOeGrNZsjhfst8N86-V-71" value="" style="ellipse;whiteSpace=wrap;html=1;aspect=fixed;strokeColor=#000000;fillColor=#FF0000;" vertex="1" parent="1">
          <mxGeometry x="983" y="452.5" width="10" height="10" as="geometry" />
        </mxCell>
        <mxCell id="FLOeGrNZsjhfst8N86-V-72" value="" style="ellipse;whiteSpace=wrap;html=1;aspect=fixed;strokeColor=#000000;fillColor=#FF0000;" vertex="1" parent="1">
          <mxGeometry x="1003" y="452.5" width="10" height="10" as="geometry" />
        </mxCell>
        <mxCell id="FLOeGrNZsjhfst8N86-V-73" value="" style="ellipse;whiteSpace=wrap;html=1;aspect=fixed;strokeColor=#000000;fillColor=#FF0000;" vertex="1" parent="1">
          <mxGeometry x="1017" y="442.5" width="10" height="10" as="geometry" />
        </mxCell>
        <mxCell id="FLOeGrNZsjhfst8N86-V-74" value="" style="ellipse;whiteSpace=wrap;html=1;aspect=fixed;strokeColor=#000000;fillColor=#FF0000;" vertex="1" parent="1">
          <mxGeometry x="973" y="472.5" width="10" height="10" as="geometry" />
        </mxCell>
        <mxCell id="FLOeGrNZsjhfst8N86-V-75" value="" style="ellipse;whiteSpace=wrap;html=1;aspect=fixed;strokeColor=#000000;fillColor=#FF0000;" vertex="1" parent="1">
          <mxGeometry x="1036" y="462.5" width="10" height="10" as="geometry" />
        </mxCell>
        <mxCell id="FLOeGrNZsjhfst8N86-V-76" value="" style="ellipse;whiteSpace=wrap;html=1;aspect=fixed;strokeColor=#000000;fillColor=#FF0000;" vertex="1" parent="1">
          <mxGeometry x="1014" y="467.5" width="10" height="10" as="geometry" />
        </mxCell>
        <mxCell id="FLOeGrNZsjhfst8N86-V-77" value="" style="ellipse;whiteSpace=wrap;html=1;aspect=fixed;strokeColor=#000000;fillColor=#FF0000;" vertex="1" parent="1">
          <mxGeometry x="993" y="471.5" width="10" height="10" as="geometry" />
        </mxCell>
        <mxCell id="FLOeGrNZsjhfst8N86-V-78" value="" style="rhombus;whiteSpace=wrap;html=1;fillColor=#009900;" vertex="1" parent="1">
          <mxGeometry x="1069" y="508.5" width="10" height="10" as="geometry" />
        </mxCell>
        <mxCell id="FLOeGrNZsjhfst8N86-V-79" value="" style="rhombus;whiteSpace=wrap;html=1;fillColor=#009900;" vertex="1" parent="1">
          <mxGeometry x="1079" y="523.5" width="10" height="10" as="geometry" />
        </mxCell>
        <mxCell id="FLOeGrNZsjhfst8N86-V-80" value="" style="rhombus;whiteSpace=wrap;html=1;fillColor=#009900;" vertex="1" parent="1">
          <mxGeometry x="1089" y="508.5" width="10" height="10" as="geometry" />
        </mxCell>
        <mxCell id="FLOeGrNZsjhfst8N86-V-81" value="" style="rhombus;whiteSpace=wrap;html=1;fillColor=#009900;" vertex="1" parent="1">
          <mxGeometry x="1095" y="491.5" width="10" height="10" as="geometry" />
        </mxCell>
        <mxCell id="FLOeGrNZsjhfst8N86-V-82" value="" style="rhombus;whiteSpace=wrap;html=1;fillColor=#009900;" vertex="1" parent="1">
          <mxGeometry x="1073" y="520.5" width="10" height="10" as="geometry" />
        </mxCell>
        <mxCell id="FLOeGrNZsjhfst8N86-V-83" value="" style="rhombus;whiteSpace=wrap;html=1;fillColor=#009900;" vertex="1" parent="1">
          <mxGeometry x="1102" y="541.5" width="10" height="10" as="geometry" />
        </mxCell>
        <mxCell id="FLOeGrNZsjhfst8N86-V-84" value="" style="rhombus;whiteSpace=wrap;html=1;fillColor=#009900;" vertex="1" parent="1">
          <mxGeometry x="1112" y="526.5" width="10" height="10" as="geometry" />
        </mxCell>
        <mxCell id="FLOeGrNZsjhfst8N86-V-85" value="" style="rhombus;whiteSpace=wrap;html=1;fillColor=#009900;" vertex="1" parent="1">
          <mxGeometry x="1112" y="504.5" width="10" height="10" as="geometry" />
        </mxCell>
        <mxCell id="FLOeGrNZsjhfst8N86-V-86" value="" style="endArrow=none;dashed=1;html=1;rounded=0;strokeWidth=2;fillColor=#ffcd28;gradientColor=#ffa500;strokeColor=#d79b00;" edge="1" parent="1">
          <mxGeometry width="50" height="50" relative="1" as="geometry">
            <mxPoint x="942" y="560" as="sourcePoint" />
            <mxPoint x="1142" y="410" as="targetPoint" />
          </mxGeometry>
        </mxCell>
        <mxCell id="FLOeGrNZsjhfst8N86-V-87" value="" style="endArrow=none;dashed=1;html=1;rounded=0;strokeWidth=2;entryX=1.011;entryY=1.108;entryDx=0;entryDy=0;entryPerimeter=0;fillColor=#ffcd28;gradientColor=#ffa500;strokeColor=#d79b00;" edge="1" parent="1">
          <mxGeometry width="50" height="50" relative="1" as="geometry">
            <mxPoint x="942" y="560" as="sourcePoint" />
            <mxPoint x="1164.7366209798638" y="458.1492209972496" as="targetPoint" />
          </mxGeometry>
        </mxCell>
        <mxCell id="FLOeGrNZsjhfst8N86-V-89" value="" style="rhombus;whiteSpace=wrap;html=1;fillColor=#009900;" vertex="1" parent="1">
          <mxGeometry x="1150" y="488.5" width="10" height="10" as="geometry" />
        </mxCell>
        <mxCell id="FLOeGrNZsjhfst8N86-V-90" value="" style="rhombus;whiteSpace=wrap;html=1;fillColor=#009900;" vertex="1" parent="1">
          <mxGeometry x="1160" y="471.5" width="10" height="10" as="geometry" />
        </mxCell>
        <mxCell id="FLOeGrNZsjhfst8N86-V-91" value="" style="endArrow=classic;html=1;rounded=0;strokeWidth=3;" edge="1" parent="1">
          <mxGeometry width="50" height="50" relative="1" as="geometry">
            <mxPoint x="872" y="558.5" as="sourcePoint" />
            <mxPoint x="1232" y="558.5" as="targetPoint" />
          </mxGeometry>
        </mxCell>
        <mxCell id="FLOeGrNZsjhfst8N86-V-92" value="&lt;font style=&quot;font-size: 14px;&quot;&gt;Class 1&lt;/font&gt;" style="text;html=1;align=center;verticalAlign=middle;resizable=0;points=[];autosize=1;strokeColor=none;fillColor=none;" vertex="1" parent="1">
          <mxGeometry x="947" y="396" width="70" height="30" as="geometry" />
        </mxCell>
        <mxCell id="FLOeGrNZsjhfst8N86-V-93" value="&lt;font style=&quot;font-size: 14px;&quot;&gt;Class 2&lt;/font&gt;" style="text;html=1;align=center;verticalAlign=middle;resizable=0;points=[];autosize=1;strokeColor=none;fillColor=none;" vertex="1" parent="1">
          <mxGeometry x="1008" y="530.5" width="70" height="30" as="geometry" />
        </mxCell>
        <mxCell id="FLOeGrNZsjhfst8N86-V-94" value="" style="ellipse;whiteSpace=wrap;html=1;aspect=fixed;strokeColor=#000000;fillColor=#FF0000;" vertex="1" parent="1">
          <mxGeometry x="1053" y="414.5" width="10" height="10" as="geometry" />
        </mxCell>
        <mxCell id="FLOeGrNZsjhfst8N86-V-95" value="" style="ellipse;whiteSpace=wrap;html=1;aspect=fixed;strokeColor=#000000;fillColor=#FF0000;" vertex="1" parent="1">
          <mxGeometry x="1073" y="414.5" width="10" height="10" as="geometry" />
        </mxCell>
        <mxCell id="FLOeGrNZsjhfst8N86-V-96" value="" style="ellipse;whiteSpace=wrap;html=1;aspect=fixed;strokeColor=#000000;fillColor=#FF0000;" vertex="1" parent="1">
          <mxGeometry x="1087" y="404.5" width="10" height="10" as="geometry" />
        </mxCell>
        <mxCell id="FLOeGrNZsjhfst8N86-V-97" value="" style="ellipse;whiteSpace=wrap;html=1;aspect=fixed;strokeColor=#000000;fillColor=#FF0000;" vertex="1" parent="1">
          <mxGeometry x="1106" y="423.5" width="10" height="10" as="geometry" />
        </mxCell>
        <mxCell id="FLOeGrNZsjhfst8N86-V-98" value="" style="ellipse;whiteSpace=wrap;html=1;aspect=fixed;strokeColor=#000000;fillColor=#FF0000;" vertex="1" parent="1">
          <mxGeometry x="1029" y="428.5" width="10" height="10" as="geometry" />
        </mxCell>
        <mxCell id="FLOeGrNZsjhfst8N86-V-99" value="" style="rhombus;whiteSpace=wrap;html=1;fillColor=#009900;" vertex="1" parent="1">
          <mxGeometry x="1124" y="518.5" width="10" height="10" as="geometry" />
        </mxCell>
        <mxCell id="FLOeGrNZsjhfst8N86-V-100" value="" style="rhombus;whiteSpace=wrap;html=1;fillColor=#009900;" vertex="1" parent="1">
          <mxGeometry x="1078" y="511.5" width="10" height="10" as="geometry" />
        </mxCell>
        <mxCell id="FLOeGrNZsjhfst8N86-V-101" value="" style="rhombus;whiteSpace=wrap;html=1;fillColor=#009900;" vertex="1" parent="1">
          <mxGeometry x="1088" y="496.5" width="10" height="10" as="geometry" />
        </mxCell>
        <mxCell id="FLOeGrNZsjhfst8N86-V-102" value="" style="rhombus;whiteSpace=wrap;html=1;fillColor=#009900;" vertex="1" parent="1">
          <mxGeometry x="1082" y="528.5" width="10" height="10" as="geometry" />
        </mxCell>
        <mxCell id="FLOeGrNZsjhfst8N86-V-103" value="" style="rhombus;whiteSpace=wrap;html=1;fillColor=#009900;" vertex="1" parent="1">
          <mxGeometry x="1102" y="528.5" width="10" height="10" as="geometry" />
        </mxCell>
        <mxCell id="FLOeGrNZsjhfst8N86-V-104" value="" style="rhombus;whiteSpace=wrap;html=1;fillColor=#009900;" vertex="1" parent="1">
          <mxGeometry x="1030" y="523.5" width="10" height="10" as="geometry" />
        </mxCell>
        <mxCell id="FLOeGrNZsjhfst8N86-V-105" value="" style="rhombus;whiteSpace=wrap;html=1;fillColor=#009900;" vertex="1" parent="1">
          <mxGeometry x="1069" y="529.5" width="10" height="10" as="geometry" />
        </mxCell>
        <mxCell id="FLOeGrNZsjhfst8N86-V-106" value="&lt;font style=&quot;font-size: 14px;&quot;&gt;decision boundaries&lt;/font&gt;" style="text;html=1;align=center;verticalAlign=middle;resizable=0;points=[];autosize=1;strokeColor=none;fillColor=none;" vertex="1" parent="1">
          <mxGeometry x="1114" y="517.5" width="150" height="30" as="geometry" />
        </mxCell>
        <mxCell id="FLOeGrNZsjhfst8N86-V-108" value="" style="endArrow=classic;html=1;rounded=0;" edge="1" parent="1" source="FLOeGrNZsjhfst8N86-V-106">
          <mxGeometry width="50" height="50" relative="1" as="geometry">
            <mxPoint x="1203" y="514.5" as="sourcePoint" />
            <mxPoint x="1162" y="458.5" as="targetPoint" />
          </mxGeometry>
        </mxCell>
        <mxCell id="FLOeGrNZsjhfst8N86-V-109" value="" style="endArrow=classic;html=1;rounded=0;strokeWidth=3;" edge="1" parent="1">
          <mxGeometry width="50" height="50" relative="1" as="geometry">
            <mxPoint x="942" y="588" as="sourcePoint" />
            <mxPoint x="942" y="380" as="targetPoint" />
          </mxGeometry>
        </mxCell>
        <mxCell id="FLOeGrNZsjhfst8N86-V-111" value="" style="triangle;whiteSpace=wrap;html=1;fillColor=#eeeeee;strokeColor=none;rotation=-210;" vertex="1" parent="1">
          <mxGeometry x="918.7" y="455.62" width="300" height="58.29" as="geometry" />
        </mxCell>
        <mxCell id="FLOeGrNZsjhfst8N86-V-113" value="" style="endArrow=classic;html=1;rounded=0;exitX=0.371;exitY=0.009;exitDx=0;exitDy=0;exitPerimeter=0;" edge="1" parent="1">
          <mxGeometry width="50" height="50" relative="1" as="geometry">
            <mxPoint x="1165" y="520" as="sourcePoint" />
            <mxPoint x="1091" y="453" as="targetPoint" />
          </mxGeometry>
        </mxCell>
        <mxCell id="FLOeGrNZsjhfst8N86-V-114" value="&lt;font style=&quot;font-size: 14px;&quot;&gt;decision margins&lt;/font&gt;" style="text;html=1;align=center;verticalAlign=middle;resizable=0;points=[];autosize=1;strokeColor=none;fillColor=none;" vertex="1" parent="1">
          <mxGeometry x="1053" y="366" width="130" height="30" as="geometry" />
        </mxCell>
        <mxCell id="FLOeGrNZsjhfst8N86-V-115" value="" style="endArrow=classic;html=1;rounded=0;" edge="1" parent="1">
          <mxGeometry width="50" height="50" relative="1" as="geometry">
            <mxPoint x="1139" y="391.27" as="sourcePoint" />
            <mxPoint x="1124.84" y="464" as="targetPoint" />
          </mxGeometry>
        </mxCell>
      </root>
    </mxGraphModel>
  </diagram>
</mxfile>
